# xmcd CD database file
#
# Track frame offsets:
#	150
#	11248
#	23116
#	35216
#	49902
#	63483
#	75673
#	88012
#	101544
#	116661
#	128177
#
# Disc length: 1955 seconds
#
# Revision: 0
# Processed by: cddbd v1.5.2PL0 Copyright (c) Steve Scherf et al.
# Submitted via: CdAid (MTCDDB.DLL V2003.12.21)
#
DISCID=9307a10b
DTITLE=Jerry Butler - Ice On Ice
DYEAR=1969
DGENRE=Soul
TTITLE0=Moody Woman
TTITLE1=A Brand New Me
TTITLE2=Been A Long Time
TTITLE3=Close To You Love
TTITLE4=Since I Lost You Lady
TTITLE5=What's The Use Of Breaking Up
TTITLE6=When You're Alone
TTITLE7=I Forgot To Remember
TTITLE8=Got To See If I Can't Get Mommy (To Come Back Home)
TTITLE9=Don't Let Love Hang You Up
TTITLE10=Walking Around In Teardrops
EXTD=ID3G:  42 YEAR: 1969
EXTT0=
EXTT1=
EXTT2=
EXTT3=
EXTT4=
EXTT5=
EXTT6=
EXTT7=
EXTT8=
EXTT9=
EXTT10=
PLAYORDER=
